<svg width="152" height="41" viewBox="0 0 152 41" fill="none" xmlns="http://www.w3.org/2000/svg">
<mask id="mask0_104_17" style="mask-type:luminance" maskUnits="userSpaceOnUse" x="0" y="0" width="152" height="41">
<path d="M151.659 0H0.341049V41H151.659V0Z" fill="white"/>
</mask>
<g mask="url(#mask0_104_17)">
<path d="M9.5051 0.0503229V2.17134C9.13357 2.12724 8.75989 2.10606 8.38603 2.10797C4.42962 2.10797 2.33952 4.91487 2.33952 10.2249V15.6169H6.00514V17.6055H2.33247V40.8789H0.341049V9.98443C0.341049 6.56992 1.17815 3.87858 2.7607 2.20303C4.14238 0.745523 6.03157 0 8.37897 0C8.78784 0 9.15263 0.0167743 9.5051 0.0503229Z" fill="#282828"/>
<path d="M105.367 0.132278H103.375V40.9721H105.367V0.132278Z" fill="#282828"/>
<path d="M120.811 5.49119C120.553 5.15147 120.361 4.76086 120.247 4.34206C120.133 3.92328 120.099 3.48467 120.146 3.05176C120.194 2.61884 120.322 2.20028 120.524 1.82038C120.727 1.44048 120.998 1.10685 121.323 0.83887C121.648 0.570897 122.02 0.373934 122.417 0.259435C122.815 0.144939 123.23 0.115193 123.639 0.171929C124.047 0.228664 124.441 0.370749 124.798 0.58992C125.154 0.809091 125.465 1.10097 125.714 1.44859L134.525 13.377C134.592 13.4683 134.668 13.5634 134.742 13.6472C133.663 13.8335 132.646 14.3037 131.783 15.0147C130.921 15.7257 130.242 16.6546 129.808 17.7159C129.752 17.613 129.689 17.5146 129.619 17.4214L120.811 5.49119Z" fill="#282828"/>
<path d="M150.997 35.6715C151.256 36.0105 151.449 36.4009 151.565 36.8196C151.68 37.2385 151.715 37.6773 151.669 38.1107C151.622 38.5442 151.494 38.9635 151.293 39.3441C151.091 39.7248 150.82 40.0594 150.496 40.3281C150.171 40.597 149.799 40.7948 149.401 40.91C149.003 41.0253 148.588 41.0556 148.179 40.9992C147.769 40.943 147.375 40.8012 147.019 40.5821C146.662 40.363 146.35 40.0712 146.101 39.7234L137.29 27.7949C137.145 27.5953 136.976 27.4168 136.787 27.2638C137.891 27.0849 138.934 26.6093 139.814 25.8822C140.695 25.155 141.384 24.2009 141.815 23.1111C141.915 23.335 142.038 23.5463 142.182 23.7411L150.997 35.6715Z" fill="#282828"/>
<path d="M134.968 27.3088C134.806 27.4511 134.66 27.6116 134.531 27.7877L125.72 39.7162C125.211 40.4036 124.466 40.8496 123.647 40.956C122.828 41.0622 122.003 40.8201 121.353 40.2827C120.702 39.7455 120.281 38.9569 120.18 38.0908C120.08 37.2248 120.309 36.3519 120.817 35.6643L129.628 23.7358C129.715 23.6174 129.793 23.4929 129.863 23.3631C130.328 24.4244 131.042 25.3426 131.936 26.031C132.83 26.7194 133.876 27.1555 134.973 27.2975" fill="#282828"/>
<path d="M137.002 13.7101C137.104 13.6084 137.199 13.4988 137.286 13.382L146.097 1.45368C146.348 1.11383 146.66 0.829613 147.015 0.617262C147.37 0.404911 147.761 0.268579 148.166 0.216052C148.571 0.163525 148.981 0.195831 149.374 0.311126C149.767 0.42642 150.135 0.622445 150.456 0.888008C150.778 1.15357 151.046 1.48347 151.247 1.85888C151.448 2.23428 151.577 2.64784 151.627 3.07592C151.676 3.504 151.646 3.93826 151.537 4.35387C151.428 4.76946 151.242 5.1583 150.991 5.49814L142.179 17.4265C142.052 17.6001 141.941 17.7876 141.85 17.9857C141.45 16.8976 140.795 15.935 139.946 15.1878C139.098 14.4406 138.084 13.9334 137 13.7138" fill="#282828"/>
<path d="M140.005 20.5818C140.005 21.4393 139.765 22.2777 139.315 22.9908C138.865 23.7039 138.224 24.26 137.475 24.5883C136.726 24.9167 135.902 25.0028 135.107 24.8359C134.312 24.6688 133.581 24.256 133.008 23.6497C132.434 23.0436 132.044 22.2711 131.885 21.4301C131.727 20.5891 131.808 19.7173 132.118 18.9251C132.428 18.1328 132.954 17.4556 133.628 16.9792C134.302 16.5027 135.095 16.2484 135.906 16.2484C136.992 16.2484 138.035 16.7049 138.803 17.5175C139.572 18.3301 140.004 19.4323 140.005 20.5818Z" fill="#FF8500"/>
<path d="M23.3959 15.4567C16.5616 15.4567 11.4121 20.9475 11.4121 28.2295V28.3225C11.4121 35.5506 16.5651 40.9964 23.3959 40.9964C30.2265 40.9964 35.3796 35.5075 35.3796 28.2257V28.1436C35.3796 20.9158 30.2249 15.4698 23.3959 15.4698V15.4567ZM33.4728 28.1829V28.2761C33.4728 34.4265 29.1605 39.0693 23.4435 39.0693C17.7705 39.0693 13.326 34.3277 13.326 28.2761V28.1829C13.326 22.0323 17.6366 17.3895 23.3535 17.3895C29.0283 17.3895 33.4728 22.1311 33.4728 28.1829Z" fill="#282828"/>
<path d="M91.9202 18.228C90.2055 16.4145 87.6995 15.4956 84.4728 15.4956C81.771 15.4956 79.3074 16.1498 76.4842 17.6166L76.0805 17.8273L76.8173 19.5792L77.2525 19.3574C79.8713 18.0248 82.0848 17.4303 84.4286 17.4303C89.6188 17.4303 92.3591 20.1533 92.3591 25.3048V26.5854C89.8032 25.7516 87.1438 25.3261 84.4691 25.3235C78.1618 25.3235 74.0839 28.4548 74.0839 33.2969V33.3919C74.0839 38.5808 78.6377 40.9422 82.869 40.9422C87.5691 40.9422 90.7995 38.6105 92.3591 36.3089V41.0038H94.2324V25.2564C94.2324 22.2613 93.4324 19.8308 91.9168 18.228H91.9202ZM92.3591 28.6131V31.2765C92.3591 34.9948 88.7482 39.0075 82.9132 39.0075C79.725 39.0075 76.003 37.5259 76.003 33.3453V33.2503C76.003 28.833 80.4001 27.26 84.5149 27.26C87.4404 27.26 89.936 27.6905 92.3591 28.6131Z" fill="#282828"/>
<path d="M56.2738 17.4267C58.3535 17.4036 60.3848 18.0899 62.0667 19.3837L62.0983 19.4079H64.9498L64.7365 19.1973C63.184 17.6112 60.6197 15.4995 56.3162 15.4995C49.815 15.4995 44.5227 21.1991 44.5227 28.2032V28.2926C44.5227 35.3025 49.7956 41.0038 56.2738 41.0038C59.55 41.0038 62.3169 39.7776 64.7331 37.2538L64.9393 37.0377H62.1054L62.0737 37.062C60.4167 38.3846 58.3921 39.09 56.3162 39.0674C50.8706 39.0674 46.4472 34.2215 46.4472 28.248V28.1586C46.4472 22.1422 50.7667 17.4304 56.2809 17.4304" fill="#282828"/>
</g>
</svg>
