<svg width="120" height="109" viewBox="0 0 120 109" fill="none" xmlns="http://www.w3.org/2000/svg">
<path d="M80.427 10.4552C81.22 10.4552 81.8537 11.1221 81.8538 11.9318C81.8538 12.7415 81.2201 13.4084 80.427 13.4084C73.4325 13.4084 67.128 18.1158 64.8684 24.9464L64.6624 25.6134C64.4504 26.3573 63.7167 26.8044 62.9846 26.6339L62.9807 26.6388L62.886 26.6086C62.1286 26.3738 61.7045 25.5517 61.927 24.7756L62.0413 24.3898C64.5214 16.3336 71.7936 10.4552 80.427 10.4552Z" fill="#FEAF00" stroke="#F9FFF9" stroke-width="0.3"/>
<path d="M98.2984 76.9187H90.639C89.9341 76.9187 89.3623 76.3247 89.3623 75.5924C89.3623 74.8601 89.9341 74.2662 90.639 74.2662H98.2984C108.857 74.2662 117.447 65.3414 117.447 54.3725C117.447 43.4036 108.857 34.4788 98.2984 34.4788H98.1142C97.744 34.4788 97.392 34.3121 97.1495 34.0213C96.9069 33.7305 96.7975 33.3449 96.8504 32.9641C96.9644 32.138 97.0218 31.3082 97.0218 30.5001C97.0218 20.9938 89.5764 13.2588 80.426 13.2588C76.8662 13.2588 73.4713 14.4146 70.608 16.6019C69.9788 17.0822 69.0852 16.869 68.7214 16.15C60.6124 0.108204 39.4324 -2.04605 28.4516 11.9089C23.8259 17.788 22.0084 25.4356 23.4648 32.8893C23.6253 33.7125 23.0189 34.4799 22.2137 34.4799H21.7022C11.1439 34.4799 2.55331 43.4046 2.55331 54.3735C2.55331 65.3424 11.1439 74.2672 21.7022 74.2672H29.3616C30.0665 74.2672 30.6382 74.8611 30.6382 75.5934C30.6382 76.3257 30.0665 76.9197 29.3616 76.9197H21.7022C9.73585 76.9197 0 66.8052 0 54.3734C0 42.2904 9.19685 32.3966 20.7 31.8509C19.6195 24.1179 21.6858 16.3176 26.4747 10.2303C38.2312 -4.71171 60.7616 -3.03691 70.2857 13.6245C73.3241 11.6456 76.8008 10.6074 80.4256 10.6074C91.5119 10.6074 100.297 20.4103 99.528 31.8633C110.925 32.5273 120 42.369 120 54.3724C120 66.8052 110.264 76.9187 98.2978 76.9187L98.2984 76.9187Z" fill="#FEAF00"/>
<path d="M59.8291 41.5365C77.5154 41.5365 91.8944 56.4832 91.8945 74.8431C91.8945 93.2029 77.5154 108.15 59.8291 108.15C42.143 108.15 27.7637 93.2031 27.7637 74.8431C27.7638 56.4835 42.1429 41.5366 59.8291 41.5365ZM59.8291 44.4896C43.7276 44.4897 30.6183 58.1014 30.6182 74.8431C30.6182 91.5853 43.7277 105.197 59.8291 105.197C75.9305 105.197 89.041 91.5851 89.041 74.8431C89.0409 58.1011 75.9304 44.4896 59.8291 44.4896Z" fill="#FEAF00" stroke="#F9FFF9" stroke-width="0.3"/>
<path d="M60.4124 61.8245C61.0165 61.8245 61.4972 62.3322 61.4973 62.9455V88.1907C61.4973 88.8049 61.0165 89.3118 60.4124 89.3118C59.8082 89.3117 59.3274 88.8042 59.3274 88.1907V62.9455C59.3275 62.3322 59.8082 61.8245 60.4124 61.8245Z" fill="#FEAF00" stroke="#FEAF00" stroke-width="0.3"/>
<path d="M59.7251 62.0805C60.1515 61.7185 60.7834 61.7445 61.1812 62.1577L68.6577 69.9252L68.7319 70.0102C69.0543 70.4205 69.0543 71.011 68.7319 71.4213L68.6577 71.5063C68.4729 71.6988 68.2365 71.8073 67.9937 71.8315L67.8892 71.8364C67.6451 71.8364 67.4012 71.7515 67.2026 71.5834L67.1196 71.5063L60.4116 64.5366L53.7046 71.5063C53.3074 71.9197 52.6754 71.9452 52.2485 71.5834L52.1665 71.5063C51.7454 71.0689 51.7454 70.3627 52.1665 69.9252L59.6431 62.1577L59.7251 62.0805Z" fill="#FEAF00" stroke="#FEAF00" stroke-width="0.3"/>
</svg>
